<svg width="155" height="155" viewBox="0 0 155 155" fill="none" xmlns="http://www.w3.org/2000/svg">
<g opacity="0.6">
<path d="M14.5312 9.6875C14.5313 9.14759 14.7117 8.62318 15.0439 8.19754C15.376 7.77191 15.8409 7.46948 16.3646 7.33828L26.0521 4.91641C26.2464 4.87898 26.443 4.85471 26.6406 4.84375H50.8594C61.1693 4.84375 72.6562 11.8066 72.6562 21.7969C72.6562 22.4392 72.4011 23.0552 71.9469 23.5094C71.4927 23.9636 70.8767 24.2188 70.2344 24.2188H62.9688V38.486L67.3281 58.125H123.516C124.158 58.125 124.774 58.3802 125.228 58.8344C125.682 59.2885 125.938 59.9046 125.938 60.5469V75.0781C125.938 75.7204 125.682 76.3365 125.228 76.7906C124.774 77.2448 124.158 77.5 123.516 77.5H120.915L116.25 138.207C116.079 141.348 114.744 144.312 112.505 146.522C110.266 148.731 107.284 150.027 104.141 150.156H46.0156C42.8764 150.029 39.897 148.738 37.6582 146.534C35.4194 144.329 34.0819 141.37 33.9062 138.233L29.2417 77.5H26.6406C25.9983 77.5 25.3823 77.2448 24.9281 76.7906C24.4739 76.3365 24.2188 75.7204 24.2188 75.0781V60.5469C24.2188 59.9046 24.4739 59.2885 24.9281 58.8344C25.3823 58.3802 25.9983 58.125 26.6406 58.125H34.3906L38.75 38.486V30.0652L32.9036 24.2188H29.0625V29.0625C29.0625 30.3471 29.5728 31.5792 30.4812 32.4875C31.3896 33.3959 32.6216 33.9062 33.9062 33.9062V38.75C31.337 38.75 28.8729 37.7294 27.0562 35.9126C25.2394 34.0958 24.2188 31.6318 24.2188 29.0625V23.6859L16.3646 21.7242C15.8409 21.593 15.376 21.2906 15.0439 20.865C14.7117 20.4393 14.5313 19.9149 14.5312 19.375V9.6875ZM72.6562 62.9688H48.4375V96.875H53.2812V75.0781H58.125V96.875H62.9688V84.7656H67.8125V96.875H72.6562V62.9688ZM43.1094 41.1719L39.3434 58.125H62.3705L58.6094 41.1719H43.1094ZM58.125 36.3281V31.4844H43.5938V36.3281H58.125ZM121.094 72.6562V62.9688H116.25V67.8125H111.406V62.9688H106.562V67.8125H101.719V62.9688H96.875V67.8125H92.0312V62.9688H87.1875V67.8125H82.3438V62.9688H77.5V72.6562H121.094ZM46.0156 145.312H104.141C105.597 145.234 106.998 144.734 108.176 143.874C109.353 143.015 110.256 141.832 110.774 140.469H39.3797C39.8986 141.832 40.8018 143.015 41.9796 143.874C43.1575 144.734 44.5595 145.234 46.0156 145.312ZM38.5708 135.625H111.585L116.056 77.5H77.5V99.2969C77.5 99.9392 77.2448 100.555 76.7906 101.009C76.3365 101.464 75.7204 101.719 75.0781 101.719H46.0156C45.3733 101.719 44.7573 101.464 44.3031 101.009C43.8489 100.555 43.5938 99.9392 43.5938 99.2969V77.5H34.1L38.5708 135.625ZM33.9062 67.8125V62.9688H29.0625V72.6562H43.5938V62.9688H38.75V67.8125H33.9062ZM29.0625 19.375H33.9062C34.5485 19.3751 35.1644 19.6304 35.6185 20.0846L42.1745 26.6406H58.125V21.7969C58.125 21.1546 58.3802 20.5385 58.8344 20.0844C59.2885 19.6302 59.9046 19.375 60.5469 19.375H67.4032C65.6328 14.1292 58.4302 9.6875 50.8594 9.6875H29.0625V19.375ZM19.375 17.4835L24.2188 18.6945V10.368L19.375 11.579V17.4835Z" fill="white"/>
<path d="M106.562 36.2724C106.572 38.9132 105.715 41.4842 104.124 43.5917C102.532 45.6992 100.294 47.2271 97.7519 47.9415C95.2096 48.6559 92.5032 48.5173 90.0471 47.5471C87.591 46.5768 85.5206 44.8283 84.1529 42.5693C82.8354 43.212 81.3878 43.5435 79.9219 43.538C77.5573 43.5474 75.271 42.6916 73.4937 41.1319C71.7165 39.5722 70.571 37.4164 70.2732 35.0707C69.9754 32.7249 70.5458 30.3512 71.877 28.397C73.2082 26.4427 75.2081 25.0427 77.5 24.4609C77.5 24.3592 77.5 24.2575 77.5 24.1558C77.5 21.5865 78.5206 19.1224 80.3374 17.3057C82.1542 15.4889 84.6182 14.4683 87.1875 14.4683C89.7568 14.4683 92.2208 15.4889 94.0376 17.3057C95.8543 19.1224 96.875 21.5865 96.875 24.1558V24.398C99.6095 24.9603 102.066 26.4486 103.831 28.6118C105.596 30.775 106.561 33.4807 106.562 36.2724ZM94.5306 29.0068L94.0777 29.0455C93.1133 29.0907 92.1676 29.3282 91.2963 29.7441C90.4249 30.1601 89.6455 30.746 89.0039 31.4674L85.3711 28.2657C87.1086 26.2994 89.4371 24.9498 92.007 24.4197C92.007 24.335 92.0312 24.2478 92.0312 24.1654C92.0312 22.8808 91.5209 21.6488 90.6125 20.7404C89.7042 19.832 88.4721 19.3217 87.1875 19.3217C85.9029 19.3217 84.6708 19.832 83.7624 20.7404C82.8541 21.6488 82.3437 22.8808 82.3437 24.1654C82.3508 24.7261 82.4565 25.2811 82.6562 25.8051C82.7908 26.1714 82.8349 26.5648 82.7848 26.9518C82.7346 27.3389 82.5917 27.7081 82.3681 28.028C82.1445 28.3479 81.847 28.609 81.5007 28.7891C81.1545 28.9692 80.7699 29.063 80.3796 29.0625C80.2755 29.0625 80.0309 29.0286 79.9219 29.0189C78.6372 29.0189 77.4052 29.5292 76.4968 30.4376C75.5884 31.346 75.0781 32.578 75.0781 33.8626C75.0781 35.1473 75.5884 36.3793 76.4968 37.2877C77.4052 38.1961 78.6372 38.7064 79.9219 38.7064C80.5755 38.7064 81.2223 38.5728 81.8225 38.3138C82.4226 38.0547 82.9635 37.6757 83.4118 37.2C83.7074 36.8909 84.0796 36.6656 84.4905 36.5471C84.9015 36.4285 85.3365 36.4209 85.7513 36.525C86.1661 36.629 86.546 36.8411 86.8523 37.1396C87.1586 37.4381 87.3804 37.8124 87.4951 38.2244C87.8587 39.5208 88.5763 40.6902 89.5675 41.6015C90.5586 42.5128 91.784 43.1299 93.1063 43.3837C94.4286 43.6375 95.7954 43.5178 97.0534 43.0382C98.3115 42.5585 99.4111 41.7379 100.229 40.6682C101.046 39.5986 101.55 38.3223 101.683 36.9824C101.816 35.6426 101.573 34.2923 100.981 33.0828C100.389 31.8734 99.4724 30.8528 98.333 30.1354C97.1937 29.418 95.877 29.0322 94.5306 29.0213V29.0068Z" fill="white"/>
<path d="M123.516 46.0156C123.516 47.4526 123.09 48.8574 122.291 50.0522C121.493 51.247 120.358 52.1783 119.03 52.7282C117.703 53.2781 116.242 53.422 114.833 53.1416C113.423 52.8613 112.129 52.1693 111.112 51.1532C110.096 50.1371 109.404 48.8425 109.124 47.4331C108.844 46.0237 108.988 44.5628 109.537 43.2352C110.087 41.9076 111.019 40.7728 112.213 39.9745C113.408 39.1761 114.813 38.75 116.25 38.75C118.177 38.75 120.025 39.5155 121.388 40.8781C122.75 42.2406 123.516 44.0887 123.516 46.0156ZM116.25 43.5937C115.771 43.5937 115.303 43.7358 114.904 44.0019C114.506 44.268 114.196 44.6463 114.012 45.0888C113.829 45.5314 113.781 46.0183 113.875 46.4881C113.968 46.9579 114.199 47.3894 114.537 47.7281C114.876 48.0669 115.308 48.2975 115.778 48.391C116.247 48.4844 116.734 48.4365 117.177 48.2531C117.619 48.0698 117.998 47.7594 118.264 47.3611C118.53 46.9629 118.672 46.4946 118.672 46.0156C118.672 45.3733 118.417 44.7573 117.963 44.3031C117.508 43.8489 116.892 43.5937 116.25 43.5937Z" fill="white"/>
<path d="M130.781 16.9531C132.697 16.9531 134.57 17.5213 136.163 18.5858C137.756 19.6502 138.998 21.1632 139.731 22.9334C140.465 24.7035 140.656 26.6514 140.283 28.5306C139.909 30.4098 138.986 32.1359 137.631 33.4907C136.277 34.8455 134.55 35.7682 132.671 36.142C130.792 36.5158 128.844 36.3239 127.074 35.5907C125.304 34.8575 123.791 33.6158 122.726 32.0227C121.662 30.4296 121.094 28.5566 121.094 26.6406C121.094 24.0713 122.114 21.6073 123.931 19.7905C125.748 17.9738 128.212 16.9531 130.781 16.9531ZM130.781 31.4844C131.739 31.4844 132.676 31.2003 133.472 30.6681C134.269 30.1358 134.89 29.3793 135.256 28.4942C135.623 27.6092 135.719 26.6353 135.532 25.6957C135.345 24.7561 134.884 23.893 134.206 23.2156C133.529 22.5382 132.666 22.0768 131.726 21.8899C130.787 21.703 129.813 21.799 128.928 22.1656C128.043 22.5322 127.286 23.153 126.754 23.9496C126.222 24.7461 125.937 25.6826 125.937 26.6406C125.937 27.9253 126.448 29.1573 127.356 30.0657C128.265 30.9741 129.497 31.4844 130.781 31.4844Z" fill="white"/>
<path d="M111.406 4.84375C112.843 4.84375 114.248 5.26987 115.443 6.06823C116.638 6.86659 117.569 8.00132 118.119 9.32894C118.669 10.6566 118.813 12.1174 118.532 13.5268C118.252 14.9362 117.56 16.2308 116.544 17.2469C115.528 18.2631 114.233 18.955 112.824 19.2354C111.414 19.5157 109.953 19.3719 108.626 18.8219C107.298 18.272 106.163 17.3408 105.365 16.1459C104.567 14.9511 104.141 13.5464 104.141 12.1094C104.141 10.1824 104.906 8.33437 106.269 6.9718C107.631 5.60923 109.479 4.84375 111.406 4.84375ZM111.406 14.5312C111.885 14.5312 112.353 14.3892 112.752 14.1231C113.15 13.857 113.46 13.4787 113.644 13.0362C113.827 12.5936 113.875 12.1067 113.782 11.6369C113.688 11.1671 113.457 10.7356 113.119 10.3969C112.78 10.0581 112.349 9.82748 111.879 9.73404C111.409 9.64059 110.922 9.68855 110.479 9.87185C110.037 10.0552 109.659 10.3656 109.393 10.7639C109.126 11.1621 108.984 11.6304 108.984 12.1094C108.984 12.7517 109.24 13.3677 109.694 13.8219C110.148 14.2761 110.764 14.5312 111.406 14.5312Z" fill="white"/>
<path d="M104.16 108.684L108.965 109.285L106.543 128.66C106.47 129.245 106.185 129.784 105.743 130.175C105.301 130.565 104.731 130.781 104.141 130.781H96.875V125.938H102.002L104.16 108.684Z" fill="white"/>
<path d="M92.0312 125.938H87.1875V130.781H92.0312V125.938Z" fill="white"/>
<path d="M82.3438 125.938H77.5V130.781H82.3438V125.938Z" fill="white"/>
</g>
</svg>
