<svg id="Layer_3" height="512" viewBox="0 0 64 64" width="512" xmlns="http://www.w3.org/2000/svg" data-name="Layer 3"><path d="m28 35a5.006 5.006 0 0 1 -5-5v-3c-11.028 0-20 6.28-20 14 0 5.647 4.821 10.717 12.282 12.914a1 1 0 0 1 .718.959v5.36l8.612-5.167a1 1 0 0 1 .467-.141c10.215-.741 17.921-6.725 17.921-13.925a10.51 10.51 0 0 0 -1.947-6zm-13 10a2 2 0 1 1 2-2 2 2 0 0 1 -2 2zm8 0a2 2 0 1 1 2-2 2 2 0 0 1 -2 2zm8 0a2 2 0 1 1 2-2 2 2 0 0 1 -2 2z"/><path d="m22 21a9 9 0 1 0 -9-9 9.01 9.01 0 0 0 9 9zm0-2a2 2 0 1 1 2-2 2 2 0 0 1 -2 2zm-.181-14h.362a2.818 2.818 0 0 1 2.764 3.372l-.768 3.844a2.22 2.22 0 0 1 -4.354 0l-.768-3.843a2.865 2.865 0 0 1 -.055-.553 2.823 2.823 0 0 1 2.819-2.82z"/><path d="m21.784 11.823a.229.229 0 0 0 .432 0l.768-3.843a.775.775 0 0 0 .016-.16.82.82 0 0 0 -.819-.82h-.362a.82.82 0 0 0 -.819.82.792.792 0 0 0 .016.161z"/><path d="m58 11h-25.051c.03.33.051.662.051 1a11.013 11.013 0 0 1 -8 10.574v7.426a3 3 0 0 0 3 3h19a1 1 0 0 1 .625.219l8.375 6.7v-5.919a1 1 0 0 1 1-1h1a3 3 0 0 0 3-3v-16a3 3 0 0 0 -3-3zm-23 15a2 2 0 1 1 2-2 2 2 0 0 1 -2 2zm8 0a2 2 0 1 1 2-2 2 2 0 0 1 -2 2zm8 0a2 2 0 1 1 2-2 2 2 0 0 1 -2 2z"/></svg>