<svg width="250" height="229" viewBox="0 0 250 229" fill="none" xmlns="http://www.w3.org/2000/svg">
<path d="M249.375 116.222C249.365 108.519 246.297 101.135 240.843 95.6878C235.389 90.2409 227.994 87.1765 220.281 87.1666H182.875V58.1108C182.875 57.5125 182.745 56.9213 182.495 56.3777C182.244 55.8342 181.879 55.3511 181.425 54.9616C180.97 54.5721 180.436 54.2854 179.86 54.1211C179.284 53.9568 178.679 53.9188 178.087 54.0098L128.844 61.5726V57.6957C133.534 56.7323 137.749 54.1833 140.778 50.4784C143.806 46.7735 145.463 42.1392 145.469 37.3566C145.469 19.2424 128.357 1.9417 127.626 1.21531C126.847 0.437147 125.79 0 124.688 0C123.585 0 122.528 0.437147 121.749 1.21531C121.018 1.9417 103.906 19.2424 103.906 37.3566C103.912 42.1392 105.569 46.7735 108.597 50.4784C111.626 54.1833 115.841 56.7323 120.531 57.6957V62.8552L70.0245 70.6172C69.0442 70.7678 68.1501 71.2635 67.5037 72.0148C66.8574 72.7662 66.5014 73.7236 66.5 74.7141V120.959C63.4646 117.689 59.9635 114.883 56.1094 112.632C55.4775 112.268 54.7608 112.076 54.0312 112.076C53.3017 112.076 52.585 112.268 51.9531 112.632C45.8968 116.147 40.7257 120.998 36.8357 126.816C32.9456 132.633 30.4396 139.262 29.5094 146.196C26.6367 145.607 23.7136 145.3 20.7812 145.278C18.947 145.286 17.1148 145.406 15.295 145.635C14.5707 145.722 13.8821 145.998 13.2984 146.436C12.7147 146.873 12.2566 147.456 11.97 148.126C7.86062 157.753 7.19014 168.498 10.071 178.559C12.9518 188.621 19.2088 197.388 27.7928 203.39H0V211.692H9.90019L17.0614 226C17.4067 226.69 17.9376 227.27 18.5946 227.675C19.2517 228.081 20.0089 228.295 20.7812 228.295H178.719C179.821 228.295 180.878 227.858 181.658 227.079C182.437 226.301 182.875 225.245 182.875 224.144V211.692H209.4L216.561 226C216.907 226.69 217.438 227.27 218.095 227.675C218.752 228.081 219.509 228.295 220.281 228.295H236.906C238.009 228.295 239.066 227.858 239.845 227.079C240.625 226.301 241.062 225.245 241.062 224.144V211.692H245.219C246.321 211.692 247.378 211.254 248.158 210.476C248.937 209.697 249.375 208.642 249.375 207.541V190.937C249.375 189.837 248.937 188.781 248.158 188.002C247.378 187.224 246.321 186.787 245.219 186.787H240.601C243.791 183.687 246.224 179.895 247.711 175.705C249.198 171.516 249.7 167.04 249.177 162.626C248.655 158.212 247.123 153.976 244.698 150.248C242.274 146.52 239.024 143.4 235.198 141.127C239.514 138.553 243.089 134.906 245.574 130.541C248.058 126.176 249.368 121.243 249.375 116.222V116.222ZM112.219 37.3566C112.219 26.7429 120.22 15.7059 124.688 10.3762C129.16 15.7017 137.156 26.718 137.156 37.3566C137.146 39.9229 136.341 42.4232 134.853 44.5156C133.365 46.6079 131.266 48.1899 128.844 49.0454V41.5074H120.531V49.0454C118.109 48.1899 116.01 46.6079 114.522 44.5156C113.034 42.4232 112.229 39.9229 112.219 37.3566V37.3566ZM74.8125 132.826V78.2755L174.562 62.9507V87.1666H162.094C156.283 87.159 150.604 88.8914 145.789 92.1402C140.974 95.389 137.245 100.005 135.084 105.392C132.923 110.778 132.428 116.689 133.664 122.359C134.901 128.029 137.811 133.199 142.019 137.201C136.57 137.843 131.415 140.013 127.15 143.46C122.885 146.907 119.684 151.49 117.919 156.678C116.154 161.866 115.896 167.448 117.176 172.776C118.455 178.105 121.22 182.962 125.149 186.787H120.531C119.429 186.787 118.372 187.224 117.592 188.002C116.813 188.781 116.375 189.837 116.375 190.937V207.541C116.375 208.642 116.813 209.697 117.592 210.476C118.372 211.254 119.429 211.692 120.531 211.692H124.688V219.993H94.0061L98.1623 211.692H108.062V203.39H80.2364C88.8296 197.397 95.096 188.633 97.9834 178.57C100.871 168.507 100.203 157.759 96.0925 148.13C95.8059 147.46 95.3478 146.877 94.7641 146.44C94.1804 146.003 93.4918 145.727 92.7675 145.639C88.038 145.032 83.2408 145.2 78.5656 146.138C77.9171 141.521 76.5616 137.031 74.5465 132.826H74.8125ZM51.9864 203.319C50.0049 197.686 49.4042 191.661 50.2345 185.749C51.0649 179.836 53.3021 174.209 56.7587 169.337C60.2153 164.466 64.7906 160.493 70.1012 157.752C75.4118 155.01 81.3031 153.579 87.2812 153.58C87.9338 153.58 88.6154 153.605 89.3261 153.651C91.3076 159.283 91.9083 165.309 91.078 171.221C90.2476 177.134 88.0104 182.761 84.5538 187.633C81.0972 192.504 76.5219 196.477 71.2113 199.218C65.9007 201.96 60.0094 203.39 54.0312 203.39C53.3787 203.39 52.6971 203.365 51.9864 203.319ZM54.0312 121.112C58.6175 124.195 62.4653 128.251 65.2998 132.991C68.1342 137.731 69.8852 143.038 70.4277 148.533C64.2287 151.005 58.6455 154.8 54.0687 159.653C49.4585 154.819 43.849 151.047 37.6307 148.599C38.1636 143.092 39.9106 137.772 42.7462 133.02C45.5818 128.267 49.4357 124.201 54.0312 121.112V121.112ZM16.625 166.032C16.6197 161.815 17.3337 157.628 18.7364 153.651C19.4471 153.605 20.1287 153.58 20.7812 153.58C26.1001 153.564 31.3598 154.693 36.2025 156.89C41.0451 159.087 45.3569 162.3 48.8442 166.311C45.4725 171.486 43.2047 177.3 42.1821 183.39C41.1595 189.479 41.4042 195.714 42.9008 201.705C35.2847 199.334 28.6269 194.594 23.8997 188.176C19.1725 181.758 16.6235 174 16.625 166.032V166.032ZM84.7127 219.993H23.3498L19.1936 211.692H88.8689L84.7127 219.993ZM142.9 219.993H133V211.692H147.056L142.9 219.993ZM174.562 219.993H152.194L156.35 211.692H174.562V219.993ZM232.75 219.993H222.85L218.694 211.692H232.75V219.993ZM241.062 195.088V203.39H124.688V195.088H241.062ZM241.062 166.032C241.056 171.535 238.864 176.81 234.969 180.701C231.073 184.591 225.791 186.78 220.281 186.787H145.469C139.957 186.787 134.671 184.6 130.774 180.708C126.877 176.816 124.687 171.537 124.688 166.032C124.687 160.528 126.877 155.249 130.774 151.357C134.671 147.465 139.957 145.278 145.469 145.278H199.5C202.807 145.278 205.978 146.59 208.317 148.926C210.655 151.261 211.969 154.428 211.969 157.731C211.969 161.033 210.655 164.201 208.317 166.536C205.978 168.871 202.807 170.183 199.5 170.183H157.938C156.835 170.183 155.778 169.746 154.999 168.968C154.219 168.189 153.781 167.133 153.781 166.032C153.781 164.932 154.219 163.876 154.999 163.097C155.778 162.319 156.835 161.882 157.938 161.882H187.031V153.58H157.938C154.631 153.58 151.459 154.892 149.121 157.227C146.782 159.563 145.469 162.73 145.469 166.032C145.469 169.335 146.782 172.502 149.121 174.838C151.459 177.173 154.631 178.485 157.938 178.485H199.5C205.01 178.478 210.291 176.29 214.187 172.399C218.083 168.508 220.275 163.233 220.281 157.731C220.266 153.225 218.768 148.85 216.017 145.278H220.281C225.791 145.285 231.073 147.474 234.969 151.364C238.864 155.255 241.056 160.53 241.062 166.032V166.032ZM199.5 136.977H162.094C156.582 136.977 151.296 134.79 147.399 130.898C143.502 127.006 141.312 121.727 141.312 116.222C141.312 110.718 143.502 105.439 147.399 101.547C151.296 97.6549 156.582 95.4683 162.094 95.4683H207.812C211.119 95.4683 214.291 96.7802 216.629 99.1155C218.968 101.451 220.281 104.618 220.281 107.921C220.281 111.223 218.968 114.391 216.629 116.726C214.291 119.061 211.119 120.373 207.812 120.373H166.25C165.148 120.373 164.091 119.936 163.311 119.158C162.532 118.379 162.094 117.323 162.094 116.222C162.094 115.122 162.532 114.066 163.311 113.287C164.091 112.509 165.148 112.072 166.25 112.072H195.344V103.77H166.25C162.943 103.77 159.772 105.082 157.433 107.417C155.095 109.753 153.781 112.92 153.781 116.222C153.781 119.525 155.095 122.692 157.433 125.028C159.772 127.363 162.943 128.675 166.25 128.675H207.812C213.322 128.668 218.604 126.48 222.5 122.589C226.396 118.698 228.587 113.423 228.594 107.921C228.59 103.639 227.247 99.4658 224.753 95.983C229.727 97.1099 234.112 100.024 237.074 104.171C240.036 108.318 241.367 113.407 240.815 118.471C240.262 123.534 237.865 128.218 234.078 131.631C230.292 135.043 225.381 136.946 220.281 136.977H199.5Z" fill="white"/>
</svg>
