<svg width="17" height="17" viewBox="0 0 17 17" fill="none" xmlns="http://www.w3.org/2000/svg">
<path d="M14.7657 7.95599V15.5137H2.25374V7.95599H1.08801V16.0966C1.08801 16.4185 1.34892 16.6794 1.67086 16.6794H15.3486C15.6705 16.6794 15.9314 16.4185 15.9314 16.0966V7.95599H14.7657Z" fill="#9D331F"/>
<path d="M16.4172 3.58435H0.582848C0.26091 3.58435 0 3.84526 0 4.1672V7.9752C0 8.29714 0.26091 8.55805 0.582848 8.55805H16.4171C16.7391 8.55805 17 8.2973 17 7.9752V4.1672C17 3.84526 16.7391 3.58435 16.4172 3.58435ZM15.8343 7.39255H1.16573V4.75028H15.8343V7.39255H15.8343Z" fill="#9D331F"/>
<path d="M9.07354 4.01975C9.03389 3.86861 8.0724 0.320557 5.26514 0.320557C4.04386 0.320557 3.05029 1.31413 3.05029 2.5354C3.05029 3.75668 4.03513 4.75025 5.24572 4.75025H8.50971C8.69021 4.75025 8.8608 4.66651 8.97114 4.52351C9.08147 4.3805 9.11919 4.1944 9.07354 4.01975ZM5.24575 3.58456C4.66835 3.58456 4.21602 3.1237 4.21602 2.5354C4.21602 1.96673 4.6965 1.48625 5.26517 1.48625C6.54416 1.48625 7.31002 2.74621 7.67821 3.58452H5.24575V3.58456Z" fill="#9D331F"/>
<path d="M11.7543 0.320557C8.94706 0.320557 7.98553 3.86861 7.94589 4.01975C7.90003 4.1944 7.93792 4.38054 8.04829 4.52354C8.15865 4.66655 8.32902 4.75029 8.50971 4.75029H11.7737C12.9843 4.75029 13.9691 3.75671 13.9691 2.53544C13.9692 1.31413 12.9756 0.320557 11.7543 0.320557ZM11.7737 3.58456H9.33896C9.70442 2.74621 10.468 1.48629 11.7545 1.48629C12.3232 1.48629 12.8037 1.96677 12.8037 2.53544C12.8036 3.1237 12.3513 3.58456 11.7737 3.58456Z" fill="#9D331F"/>
<path d="M9.09255 4.16742H7.92682V16.0966H9.09255V4.16742Z" fill="#9D331F"/>
</svg>
