<svg width="81" height="36" viewBox="0 0 81 36" fill="none" xmlns="http://www.w3.org/2000/svg">
<path d="M0.184766 8C0.184766 6.97333 0.358099 6.02667 0.704766 5.16C1.06477 4.28 1.56477 3.52 2.20477 2.88C2.84477 2.22667 3.5981 1.72 4.46477 1.36C5.33143 0.986666 6.27143 0.799999 7.28477 0.799999C8.31143 0.799999 9.25143 0.986666 10.1048 1.36C10.9714 1.72 11.7248 2.22667 12.3648 2.88C13.0048 3.52 13.4981 4.28 13.8448 5.16C14.2048 6.02667 14.3848 6.97333 14.3848 8C14.3848 9.01333 14.2048 9.96 13.8448 10.84C13.4981 11.72 13.0048 12.4867 12.3648 13.14C11.7248 13.78 10.9714 14.2867 10.1048 14.66C9.25143 15.02 8.31143 15.2 7.28477 15.2C6.27143 15.2 5.33143 15.02 4.46477 14.66C3.5981 14.2867 2.84477 13.78 2.20477 13.14C1.56477 12.4867 1.06477 11.72 0.704766 10.84C0.358099 9.96 0.184766 9.01333 0.184766 8ZM1.98477 8C1.98477 9.05333 2.21143 9.99333 2.66477 10.82C3.13143 11.6467 3.76477 12.3 4.56477 12.78C5.36477 13.26 6.27143 13.5 7.28477 13.5C8.31143 13.5 9.2181 13.26 10.0048 12.78C10.8048 12.3 11.4314 11.6467 11.8848 10.82C12.3514 9.99333 12.5848 9.05333 12.5848 8C12.5848 6.94667 12.3514 6.00667 11.8848 5.18C11.4314 4.35333 10.8048 3.7 10.0048 3.22C9.2181 2.74 8.31143 2.5 7.28477 2.5C6.27143 2.5 5.36477 2.74 4.56477 3.22C3.76477 3.7 3.13143 4.35333 2.66477 5.18C2.21143 6.00667 1.98477 6.94667 1.98477 8ZM16.6855 0.999999H18.3855V10.4C18.3855 11.36 18.6455 12.1333 19.1655 12.72C19.6855 13.3067 20.4455 13.6 21.4455 13.6C22.4455 13.6 23.2055 13.3067 23.7255 12.72C24.2455 12.1333 24.5055 11.36 24.5055 10.4V0.999999H26.2055V10.4C26.2055 11.32 26.0055 12.1467 25.6055 12.88C25.2189 13.6 24.6722 14.1667 23.9655 14.58C23.2589 14.9933 22.4189 15.2 21.4455 15.2C20.4855 15.2 19.6455 14.9933 18.9255 14.58C18.2189 14.1667 17.6655 13.6 17.2655 12.88C16.8789 12.1467 16.6855 11.32 16.6855 10.4V0.999999ZM27.9051 2.6V0.999999H36.8051V2.6H33.2051V15H31.5051V2.6H27.9051ZM38.6059 8C38.6059 9.08 38.8459 10.0333 39.3259 10.86C39.8192 11.6867 40.4592 12.3333 41.2459 12.8C42.0325 13.2667 42.8859 13.5 43.8059 13.5C44.7925 13.5 45.6659 13.3067 46.4259 12.92C47.1859 12.5333 47.8125 12.0333 48.3059 11.42V13.66C47.7192 14.18 47.0792 14.5667 46.3859 14.82C45.6925 15.0733 44.8325 15.2 43.8059 15.2C42.8325 15.2 41.9192 15.0267 41.0659 14.68C40.2259 14.32 39.4859 13.82 38.8459 13.18C38.2059 12.5267 37.7059 11.76 37.3459 10.88C36.9859 10 36.8059 9.04 36.8059 8C36.8059 6.96 36.9859 6 37.3459 5.12C37.7059 4.24 38.2059 3.48 38.8459 2.84C39.4859 2.18667 40.2259 1.68667 41.0659 1.34C41.9192 0.979999 42.8325 0.799999 43.8059 0.799999C44.8325 0.799999 45.6925 0.926666 46.3859 1.18C47.0792 1.43333 47.7192 1.82 48.3059 2.34V4.58C47.8125 3.95333 47.1859 3.45333 46.4259 3.08C45.6659 2.69333 44.7925 2.5 43.8059 2.5C42.8859 2.5 42.0325 2.73333 41.2459 3.2C40.4592 3.66667 39.8192 4.31333 39.3259 5.14C38.8459 5.95333 38.6059 6.90667 38.6059 8ZM60.6043 15L58.8243 10.8H53.1843L51.4043 15H49.5043L56.0043 0.3L62.5043 15H60.6043ZM56.0043 4.16L53.8643 9.2H58.1443L56.0043 4.16ZM64.2074 0.999999H65.9074V13.4H71.4074V15H64.2074V0.999999ZM73.2113 0.999999H74.9113V13.4H80.4113V15H73.2113V0.999999ZM15.5276 23.62V30H13.7676V23.84C13.7676 22.9747 13.6062 22.3367 13.2836 21.926C12.9756 21.5153 12.4916 21.31 11.8316 21.31C11.1129 21.31 10.5409 21.5373 10.1156 21.992C9.69025 22.432 9.47758 23.048 9.47758 23.84V30H7.71758V23.84C7.71758 22.9747 7.55625 22.3367 7.23358 21.926C6.92558 21.5153 6.44158 21.31 5.78158 21.31C5.06291 21.31 4.49091 21.5373 4.06558 21.992C3.64024 22.432 3.42758 23.048 3.42758 23.84V30H1.66758V19.88H3.42758V21.354C4.02891 20.2247 4.96024 19.66 6.22158 19.66C6.92558 19.66 7.52691 19.8287 8.02558 20.166C8.53891 20.4887 8.91291 20.9507 9.14758 21.552C9.85158 20.2907 10.8929 19.66 12.2716 19.66C13.3129 19.66 14.1122 20.0047 14.6696 20.694C15.2416 21.3833 15.5276 22.3587 15.5276 23.62ZM19.3616 22.212L18.5036 20.914C18.8849 20.6353 19.4056 20.3567 20.0656 20.078C20.7403 19.7993 21.5469 19.66 22.4856 19.66C23.6589 19.66 24.6123 19.9313 25.3456 20.474C26.0789 21.002 26.4456 21.7573 26.4456 22.74V30H24.6856V28.636C24.3629 29.164 23.8789 29.56 23.2336 29.824C22.5883 30.088 21.9576 30.22 21.3416 30.22C20.7256 30.22 20.1463 30.0953 19.6036 29.846C19.0756 29.582 18.6503 29.208 18.3276 28.724C18.0049 28.24 17.8436 27.6533 17.8436 26.964C17.8436 25.9813 18.1883 25.1967 18.8776 24.61C19.5816 24.0087 20.5569 23.708 21.8036 23.708C22.4783 23.708 23.0503 23.7887 23.5196 23.95C24.0036 24.0967 24.3923 24.2653 24.6856 24.456V22.982C24.6856 22.2927 24.4583 21.8233 24.0036 21.574C23.5636 21.3247 23.0283 21.2 22.3976 21.2C21.6349 21.2 20.9969 21.3247 20.4836 21.574C19.9703 21.8233 19.5963 22.036 19.3616 22.212ZM19.6256 26.876C19.6256 27.4627 19.8236 27.9173 20.2196 28.24C20.6303 28.548 21.1583 28.702 21.8036 28.702C22.6103 28.702 23.2923 28.46 23.8496 27.976C24.4069 27.492 24.6856 26.8467 24.6856 26.04V25.666C24.2749 25.4607 23.8569 25.314 23.4316 25.226C23.0063 25.138 22.5589 25.094 22.0896 25.094C21.2389 25.094 20.6156 25.2553 20.2196 25.578C19.8236 25.886 19.6256 26.3187 19.6256 26.876ZM29.8434 26.898C30.1514 27.3673 30.5254 27.7707 30.9654 28.108C31.4201 28.4453 31.9627 28.614 32.5934 28.614C33.0921 28.614 33.4807 28.504 33.7594 28.284C34.0527 28.0493 34.1994 27.734 34.1994 27.338C34.1994 26.986 34.0821 26.6927 33.8474 26.458C33.6274 26.2087 33.3414 26.0033 32.9894 25.842C32.6374 25.666 32.2634 25.5047 31.8674 25.358C31.4274 25.182 30.9801 24.9767 30.5254 24.742C30.0854 24.4927 29.7114 24.1773 29.4034 23.796C29.1101 23.4 28.9634 22.9087 28.9634 22.322C28.9634 21.7207 29.1174 21.222 29.4254 20.826C29.7481 20.43 30.1587 20.1367 30.6574 19.946C31.1707 19.7553 31.6987 19.66 32.2414 19.66C33.0481 19.66 33.7814 19.8507 34.4414 20.232C35.1014 20.6133 35.5854 21.0827 35.8934 21.64L34.4854 22.542C34.2067 22.1607 33.8547 21.8453 33.4294 21.596C33.0187 21.3467 32.5494 21.222 32.0214 21.222C31.6547 21.222 31.3394 21.3027 31.0754 21.464C30.8114 21.6253 30.6794 21.8747 30.6794 22.212C30.6794 22.6227 30.8921 22.96 31.3174 23.224C31.7574 23.4733 32.2487 23.708 32.7914 23.928C33.3781 24.1627 33.9134 24.4193 34.3974 24.698C34.8814 24.962 35.2627 25.2847 35.5414 25.666C35.8347 26.0473 35.9814 26.5387 35.9814 27.14C35.9814 28.02 35.6587 28.7533 35.0134 29.34C34.3827 29.9267 33.5467 30.22 32.5054 30.22C31.8307 30.22 31.2221 30.1027 30.6794 29.868C30.1367 29.6187 29.6747 29.3033 29.2934 28.922C28.9267 28.5407 28.6481 28.152 28.4574 27.756L29.8434 26.898ZM38.7164 26.898C39.0244 27.3673 39.3984 27.7707 39.8384 28.108C40.2931 28.4453 40.8358 28.614 41.4664 28.614C41.9651 28.614 42.3538 28.504 42.6324 28.284C42.9258 28.0493 43.0724 27.734 43.0724 27.338C43.0724 26.986 42.9551 26.6927 42.7204 26.458C42.5004 26.2087 42.2144 26.0033 41.8624 25.842C41.5104 25.666 41.1364 25.5047 40.7404 25.358C40.3004 25.182 39.8531 24.9767 39.3984 24.742C38.9584 24.4927 38.5844 24.1773 38.2764 23.796C37.9831 23.4 37.8364 22.9087 37.8364 22.322C37.8364 21.7207 37.9904 21.222 38.2984 20.826C38.6211 20.43 39.0318 20.1367 39.5304 19.946C40.0438 19.7553 40.5718 19.66 41.1144 19.66C41.9211 19.66 42.6544 19.8507 43.3144 20.232C43.9744 20.6133 44.4584 21.0827 44.7664 21.64L43.3584 22.542C43.0798 22.1607 42.7278 21.8453 42.3024 21.596C41.8918 21.3467 41.4224 21.222 40.8944 21.222C40.5278 21.222 40.2124 21.3027 39.9484 21.464C39.6844 21.6253 39.5524 21.8747 39.5524 22.212C39.5524 22.6227 39.7651 22.96 40.1904 23.224C40.6304 23.4733 41.1218 23.708 41.6644 23.928C42.2511 24.1627 42.7864 24.4193 43.2704 24.698C43.7544 24.962 44.1358 25.2847 44.4144 25.666C44.7078 26.0473 44.8544 26.5387 44.8544 27.14C44.8544 28.02 44.5318 28.7533 43.8864 29.34C43.2558 29.9267 42.4198 30.22 41.3784 30.22C40.7038 30.22 40.0951 30.1027 39.5524 29.868C39.0098 29.6187 38.5478 29.3033 38.1664 28.922C37.7998 28.5407 37.5211 28.152 37.3304 27.756L38.7164 26.898ZM47.6995 22.212L46.8415 20.914C47.2228 20.6353 47.7435 20.3567 48.4035 20.078C49.0782 19.7993 49.8848 19.66 50.8235 19.66C51.9968 19.66 52.9502 19.9313 53.6835 20.474C54.4168 21.002 54.7835 21.7573 54.7835 22.74V30H53.0235V28.636C52.7008 29.164 52.2168 29.56 51.5715 29.824C50.9262 30.088 50.2955 30.22 49.6795 30.22C49.0635 30.22 48.4842 30.0953 47.9415 29.846C47.4135 29.582 46.9882 29.208 46.6655 28.724C46.3428 28.24 46.1815 27.6533 46.1815 26.964C46.1815 25.9813 46.5262 25.1967 47.2155 24.61C47.9195 24.0087 48.8948 23.708 50.1415 23.708C50.8162 23.708 51.3882 23.7887 51.8575 23.95C52.3415 24.0967 52.7302 24.2653 53.0235 24.456V22.982C53.0235 22.2927 52.7962 21.8233 52.3415 21.574C51.9015 21.3247 51.3662 21.2 50.7355 21.2C49.9728 21.2 49.3348 21.3247 48.8215 21.574C48.3082 21.8233 47.9342 22.036 47.6995 22.212ZM47.9635 26.876C47.9635 27.4627 48.1615 27.9173 48.5575 28.24C48.9682 28.548 49.4962 28.702 50.1415 28.702C50.9482 28.702 51.6302 28.46 52.1875 27.976C52.7448 27.492 53.0235 26.8467 53.0235 26.04V25.666C52.6128 25.4607 52.1948 25.314 51.7695 25.226C51.3442 25.138 50.8968 25.094 50.4275 25.094C49.5768 25.094 48.9535 25.2553 48.5575 25.578C48.1615 25.886 47.9635 26.3187 47.9635 26.876ZM57.0813 30.66H58.8633C58.8633 31.144 58.9953 31.5913 59.2593 32.002C59.5233 32.4273 59.8973 32.7647 60.3813 33.014C60.8653 33.278 61.4373 33.41 62.0973 33.41C62.6106 33.41 63.1166 33.2853 63.6153 33.036C64.1139 32.7867 64.5246 32.3907 64.8473 31.848C65.1846 31.32 65.3533 30.6307 65.3533 29.78V28.262C64.9866 28.8927 64.5026 29.3767 63.9013 29.714C63.3146 30.0513 62.6473 30.22 61.8993 30.22C60.9899 30.22 60.1539 30.0073 59.3913 29.582C58.6286 29.1567 58.0199 28.548 57.5653 27.756C57.1106 26.964 56.8833 26.0253 56.8833 24.94C56.8833 23.84 57.1106 22.9013 57.5653 22.124C58.0199 21.332 58.6286 20.7233 59.3913 20.298C60.1539 19.8727 60.9899 19.66 61.8993 19.66C62.6473 19.66 63.3146 19.8287 63.9013 20.166C64.5026 20.5033 64.9866 20.9873 65.3533 21.618V19.88H67.1133V29.78C67.1133 30.9387 66.8713 31.9067 66.3873 32.684C65.9033 33.476 65.2799 34.07 64.5173 34.466C63.7546 34.862 62.9479 35.06 62.0973 35.06C61.1146 35.06 60.2419 34.8767 59.4793 34.51C58.7313 34.1433 58.1446 33.6227 57.7193 32.948C57.2939 32.288 57.0813 31.5253 57.0813 30.66ZM58.6653 24.94C58.6653 25.7173 58.8193 26.3773 59.1273 26.92C59.4499 27.4627 59.8753 27.8733 60.4033 28.152C60.9313 28.4307 61.5033 28.57 62.1193 28.57C62.6326 28.57 63.1386 28.4307 63.6373 28.152C64.1359 27.8733 64.5466 27.4627 64.8693 26.92C65.1919 26.3773 65.3533 25.7173 65.3533 24.94C65.3533 24.1627 65.1919 23.5027 64.8693 22.96C64.5466 22.4173 64.1359 22.0067 63.6373 21.728C63.1386 21.4493 62.6326 21.31 62.1193 21.31C61.5033 21.31 60.9313 21.4493 60.4033 21.728C59.8753 22.0067 59.4499 22.4173 59.1273 22.96C58.8193 23.5027 58.6653 24.1627 58.6653 24.94ZM74.2262 30.22C73.2875 30.22 72.4515 30 71.7182 29.56C70.9995 29.1053 70.4348 28.482 70.0242 27.69C69.6282 26.898 69.4302 25.9813 69.4302 24.94C69.4302 23.884 69.6355 22.96 70.0462 22.168C70.4715 21.376 71.0582 20.76 71.8062 20.32C72.5688 19.88 73.4488 19.66 74.4462 19.66C75.9275 19.66 77.0935 20.122 77.9442 21.046C78.7948 21.97 79.2202 23.2387 79.2202 24.852C79.2202 24.9547 79.2128 25.0647 79.1982 25.182C79.1982 25.2847 79.1982 25.3507 79.1982 25.38H71.2342C71.3075 26.392 71.6228 27.1767 72.1802 27.734C72.7375 28.2913 73.4928 28.57 74.4462 28.57C75.8248 28.57 76.8808 27.9613 77.6142 26.744L79.0442 27.646C77.9882 29.362 76.3822 30.22 74.2262 30.22ZM74.4462 21.2C73.5808 21.2 72.8768 21.4347 72.3342 21.904C71.7915 22.3587 71.4468 23.0187 71.3002 23.884H77.3062C77.2475 23.0773 76.9542 22.432 76.4262 21.948C75.9128 21.4493 75.2528 21.2 74.4462 21.2Z" fill="#9D331F"/>
</svg>
