<svg width="19" height="19" viewBox="0 0 19 19" fill="none" xmlns="http://www.w3.org/2000/svg">
<path d="M18.4828 13.9441L15.8313 11.2926C14.8844 10.3456 13.2745 10.7244 12.8957 11.9555C12.6117 12.8078 11.6647 13.2812 10.8124 13.0918C8.91848 12.6183 6.36168 10.1562 5.88819 8.16759C5.6041 7.31528 6.17228 6.36831 7.02455 6.08426C8.25561 5.70547 8.6344 4.09563 7.68743 3.14866L5.03592 0.497158C4.27835 -0.165719 3.14199 -0.165719 2.47911 0.497158L0.679876 2.29639C-1.11936 4.19033 0.869269 9.20925 5.32001 13.66C9.77076 18.1107 14.7897 20.1941 16.6836 18.3001L18.4828 16.5009C19.1458 15.7433 19.1458 14.607 18.4828 13.9441Z" fill="#9D331F"/>
</svg>
