<svg width="36" height="36" viewBox="0 0 36 36" fill="none" xmlns="http://www.w3.org/2000/svg">
<g clip-path="url(#clip0)">
<path d="M0.836316 36C0.634168 36 0.437513 35.9201 0.291669 35.7726C0.0994083 35.5781 0.0252506 35.2958 0.0974857 35.0318L2.43785 26.4856C0.980787 23.8508 0.212568 20.8702 0.213666 17.8445C0.217786 8.00491 8.22517 0 18.064 0C22.8362 0.00192261 27.3202 1.86081 30.6906 5.23361C34.0603 8.60669 35.9154 13.0905 35.914 17.8588C35.9096 27.6987 27.9022 35.7042 18.064 35.7042C18.064 35.7042 18.0566 35.7042 18.0563 35.7042C15.1825 35.7031 12.3335 35.0027 9.79677 33.6761L1.0305 35.975C0.96623 35.9918 0.900861 36 0.836316 36Z" fill="#E5E5E5"/>
<path d="M0.836304 35.2341L3.25989 26.3838C1.76492 23.7935 0.978577 20.8552 0.979675 17.8449C0.98352 8.4277 8.64703 0.766113 18.064 0.766113C22.6337 0.768036 26.9231 2.54672 30.1487 5.77505C33.374 9.00339 35.1496 13.2946 35.148 17.8586C35.1439 27.2756 27.4792 34.9383 18.064 34.9383C18.0634 34.9383 18.0642 34.9383 18.064 34.9383H18.0565C15.1974 34.9372 12.3882 34.22 9.89288 32.8591L0.836304 35.2341ZM10.3123 29.7673L10.8311 30.0746C13.0108 31.3683 15.5099 32.0524 18.0585 32.0538H18.064C25.8901 32.0538 32.2599 25.685 32.2632 17.8575C32.2646 14.0642 30.7892 10.4973 28.1082 7.81412C25.427 5.13098 21.8622 3.6525 18.0692 3.65085C10.2368 3.65085 3.86716 10.0188 3.86414 17.846C3.86304 20.5283 4.6134 23.1403 6.03503 25.4008L6.37286 25.938L4.93805 31.1763L10.3123 29.7673Z" fill="white"/>
<path d="M1.43042 34.6376L3.77023 26.0933C2.32663 23.5928 1.56775 20.7559 1.56857 17.8503C1.57214 8.75906 8.97061 1.36279 18.061 1.36279C22.4731 1.36472 26.6141 3.08188 29.7274 6.19843C32.8414 9.31497 34.5553 13.4576 34.5536 17.8632C34.5498 26.9546 27.1511 34.3517 18.0618 34.3517C18.061 34.3517 18.0621 34.3517 18.0618 34.3517H18.0544C15.2943 34.3506 12.5821 33.6579 10.1733 32.3451L1.43042 34.6376Z" fill="#64B161"/>
<path d="M0.836304 35.2341L3.25989 26.3838C1.76492 23.7935 0.978577 20.8552 0.979675 17.8449C0.98352 8.4277 8.64703 0.766113 18.064 0.766113C22.6337 0.768036 26.9231 2.54672 30.1487 5.77505C33.374 9.00339 35.1496 13.2946 35.148 17.8586C35.1439 27.2756 27.4792 34.9383 18.064 34.9383C18.0634 34.9383 18.0642 34.9383 18.064 34.9383H18.0565C15.1974 34.9372 12.3882 34.22 9.89288 32.8591L0.836304 35.2341ZM10.3123 29.7673L10.8311 30.0746C13.0108 31.3683 15.5099 32.0524 18.0585 32.0538H18.064C25.8901 32.0538 32.2599 25.685 32.2632 17.8575C32.2646 14.0642 30.7892 10.4973 28.1082 7.81412C25.427 5.13098 21.8622 3.6525 18.0692 3.65085C10.2368 3.65085 3.86716 10.0188 3.86414 17.846C3.86304 20.5283 4.6134 23.1403 6.03503 25.4008L6.37286 25.938L4.93805 31.1763L10.3123 29.7673Z" fill="white"/>
<path fill-rule="evenodd" clip-rule="evenodd" d="M13.7941 10.7051C13.4744 9.99433 13.1377 9.98005 12.8333 9.96769C12.5845 9.95698 12.2997 9.95752 12.0154 9.95752C11.7309 9.95752 11.2683 10.0646 10.8772 10.4917C10.4858 10.9188 9.38281 11.9515 9.38281 14.0519C9.38281 16.1524 10.9127 18.1819 11.1261 18.467C11.3395 18.7518 14.0792 23.1996 18.418 24.9107C22.024 26.3329 22.7576 26.05 23.5403 25.9789C24.3231 25.9078 26.0658 24.9462 26.4215 23.9494C26.7775 22.9527 26.7775 22.0985 26.6706 21.9197C26.5638 21.742 26.2792 21.6352 25.8524 21.4218C25.4256 21.2083 23.3269 20.1754 22.9355 20.0331C22.5442 19.8905 22.2596 19.8197 21.9751 20.247C21.6902 20.6739 20.8729 21.6352 20.6237 21.9197C20.3746 22.2051 20.1255 22.2408 19.6987 22.0271C19.2719 21.8131 17.8969 21.3627 16.266 19.9084C14.9971 18.7771 14.1402 17.3796 13.8911 16.9522C13.6422 16.5254 13.8869 16.3145 14.0786 16.0813C14.4239 15.6614 15.0031 14.9063 15.1454 14.6218C15.2877 14.3367 15.2166 14.0876 15.11 13.8739C15.0031 13.6605 14.1734 11.5494 13.7941 10.7051Z" fill="white"/>
</g>
<defs>
<clipPath id="clip0">
<rect width="36" height="36" fill="white"/>
</clipPath>
</defs>
</svg>
